<?xml version="1.0" encoding="utf-8"?>
<!-- Generator: Adobe Illustrator 28.0.0, SVG Export Plug-In . SVG Version: 6.00 Build 0)  -->
<svg version="1.1" id="Layer_1" xmlns="http://www.w3.org/2000/svg" xmlns:xlink="http://www.w3.org/1999/xlink" x="0px" y="0px"
	 viewBox="0 0 650 150" style="enable-background:new 0 0 650 150;" xml:space="preserve">
<style type="text/css">
	.st0{fill:#828282;}
</style>
<rect y="25.91" class="st0" width="27.19" height="91.48"/>
<rect x="36.14" y="25.91" class="st0" width="13.59" height="91.48"/>
<rect x="54.21" y="1.2" class="st0" width="27.19" height="91.48"/>
<rect x="90.35" y="126.18" class="st0" width="27.19" height="26.36"/>
<rect x="162.63" y="92.68" class="st0" width="27.19" height="59.86"/>
<rect x="234.92" y="117.4" class="st0" width="27.19" height="35.14"/>
<rect x="307.2" y="92.68" class="st0" width="27.19" height="59.86"/>
<rect x="379.48" y="92.68" class="st0" width="16.61" height="57.32"/>
<rect x="451.76" y="61.05" class="st0" width="18.07" height="91.48"/>
<rect x="524.05" y="134.97" class="st0" width="27.19" height="17.57"/>
<rect x="515.09" y="117.4" class="st0" width="47.8" height="17.57"/>
<rect x="603.17" y="61.05" class="st0" width="18.07" height="91.48"/>
<rect x="126.49" y="1.2" class="st0" width="27.19" height="24.72"/>
<rect x="207.89" y="1.2" class="st0" width="18.07" height="91.48"/>
<rect x="271.06" y="1.2" class="st0" width="27.19" height="34.49"/>
<rect x="343.34" y="1.2" class="st0" width="27.19" height="91.48"/>
<rect x="424.74" y="9.04" class="st0" width="18.07" height="83.64"/>
<rect x="487.9" y="1.2" class="st0" width="27.19" height="80.23"/>
<rect x="569.31" y="1.2" class="st0" width="18.07" height="91.48"/>
<rect x="72.28" y="25.91" class="st0" width="27.19" height="100.27"/>
<rect x="117.54" y="25.91" class="st0" width="18.07" height="91.48"/>
<rect x="144.56" y="25.91" class="st0" width="18.07" height="91.48"/>
<rect x="180.71" y="44.78" class="st0" width="27.19" height="72.61"/>
<rect x="225.97" y="25.91" class="st0" width="18.07" height="91.48"/>
<rect x="252.99" y="25.91" class="st0" width="27.19" height="100.27"/>
<rect x="298.25" y="44.78" class="st0" width="18.07" height="72.61"/>
<rect x="334.39" y="25.91" class="st0" width="18.07" height="91.48"/>
<rect x="361.41" y="35.68" class="st0" width="18.07" height="81.71"/>
<rect x="406.67" y="25.91" class="st0" width="18.07" height="91.48"/>
<rect x="442.81" y="25.91" class="st0" width="18.07" height="91.48"/>
<rect x="469.83" y="25.91" class="st0" width="18.07" height="91.48"/>
<rect x="515.09" y="25.91" class="st0" width="18.07" height="91.48"/>
<rect x="542.12" y="25.91" class="st0" width="27.19" height="91.48"/>
<rect x="587.38" y="35.68" class="st0" width="9.04" height="90.5"/>
<rect x="627.99" y="25.91" class="st0" width="13.59" height="91.48"/>
</svg>
